<?xml version="1.0" encoding="utf-8"?>
<!-- Generator: Adobe Illustrator 24.0.0, SVG Export Plug-In . SVG Version: 6.00 Build 0)  -->
<svg version="1.1" id="Layer_1" xmlns="http://www.w3.org/2000/svg" xmlns:xlink="http://www.w3.org/1999/xlink" x="0px" y="0px"
	 viewBox="0 0 1920 1080" style="enable-background:new 0 0 1920 1080;" xml:space="preserve">
<style type="text/css">
	.st0{fill:#424242;}
	.st1{fill:url(#Path_85_1_);}
	.st2{fill:url(#Rectangle_844_1_);}
	.st3{fill:url(#Path_86_1_);}
	.st4{fill:url(#Path_87_1_);}
	.st5{fill:url(#Path_88_1_);}
	.st6{fill:url(#Path_89_1_);}
	.st7{fill:url(#Path_90_1_);}
	.st8{fill:url(#Path_91_1_);}
	.st9{fill:url(#Rectangle_845_1_);}
	.st10{fill:url(#Rectangle_846_1_);}
	.st11{fill:url(#Path_92_1_);}
	.st12{fill:url(#Rectangle_847_1_);}
	.st13{fill:url(#Rectangle_848_1_);}
	.st14{fill:url(#Rectangle_849_1_);}
	.st15{fill:url(#Rectangle_850_1_);}
	.st16{fill:url(#Rectangle_851_1_);}
	.st17{fill:#FFD400;}
</style>
<g>
	<path class="st0" d="M1284.7,505c2.4,0,4.3-2,4.3-4.4c0-2.4-2-4.3-4.4-4.3h-5.4l0,8.6H1284.7z"/>
	<path class="st0" d="M1285.5,510.2c-0.1,0-0.2,0-0.3,0h-6.1v8.8h6c2.3,0.2,4.4-1.6,4.6-3.9c0-0.2,0-0.3,0-0.5l0,0
		C1289.8,512.3,1287.9,510.3,1285.5,510.2z"/>
	<path class="st0" d="M1284.8,472.2c-18.7,0-33.9,15.2-33.9,33.9v33.9h33.9c18.7,0,33.9-15.2,33.9-33.9S1303.5,472.2,1284.8,472.2z
		 M1286.4,524.6c-0.2,0-0.3,0-0.5,0h-13.1V491h12.5c5-0.6,9.5,3,10.1,8c0,0.3,0.1,0.6,0.1,0.9c0.1,3.3-1.9,6.2-5,7.4
		c3.5,1.2,5.8,4.6,5.7,8.3C1296,520.8,1291.7,524.8,1286.4,524.6z"/>
</g>
<g id="Group_7_2_" transform="translate(1042.368 278.515)">
	<path id="Path_7_2_" class="st0" d="M-156.9,253.5l8.9,4.3c8.5,4.1,15,9.3,15,20c0,12-9.4,20.7-24.7,20.7
		c-11.6,0.9-22.2-6.7-25.1-18l11.2-6.2c1.3,6.9,7.3,11.9,14.3,11.9c5.8,0,9.9-3,9.9-8.5c0-3.9-2.7-6.5-9.2-9.4l-8-3.8
		c-8.5-3.9-15.1-8.8-15.1-20.2c0-10.8,9.6-19.7,22.6-19.7c10.6-0.5,20.3,5.8,24.2,15.7l-10.4,5.9c-2.1-5.7-7.4-9.5-13.5-9.6
		c-5.4,0-9.2,3-9.2,7.6C-166.1,248.2-163.4,250.5-156.9,253.5z"/>
	<path id="Path_8_2_" class="st0" d="M-86.8,224.5c12.4,0,21.5,5.9,24.8,13h0.4c-0.2-2.3-0.3-4.6-0.3-6.9v-3.9h13.4v69.7h-13.4v-5
		c0-3.1,0.1-5.1,0.3-7H-62c-4.9,9.3-14.9,14.9-25.4,14.2c-21.1,0-35.1-15.5-35.1-37S-107.6,224.5-86.8,224.5z M-62.4,261.3
		c0.7-12.5-8.8-23.3-21.4-24c-12.5-0.7-23.3,8.8-24,21.4c-0.1,0.9-0.1,1.8,0,2.6c-0.7,12.5,8.8,23.3,21.4,24
		c12.5,0.7,23.3-8.8,24-21.4C-62.3,263.1-62.3,262.2-62.4,261.3z"/>
	<path id="Path_9_2_" class="st0" d="M-12.1,296.3l-24.2-69.7h15.7l18,56.9h0.5l18-56.9h15.5l-24,69.7H-12.1z"/>
	<path id="Path_10_2_" class="st0" d="M65.2,296.3l-24.2-69.7h15.7l18,56.9h0.5l18-56.9h15.5l-24,69.7H65.2z"/>
	<path id="Path_11_2_" class="st0" d="M130.6,327.4v-12.8h14.2l5.8-19.6h-6.8l-26.2-68.3h15.5l20.2,55.7h0.5l12.6-41.2l4.3-14.5
		h15.3l-31,100.8L130.6,327.4z"/>
</g>
<g>
	
		<linearGradient id="Path_85_1_" gradientUnits="userSpaceOnUse" x1="6.2723" y1="970.1614" x2="10.2229" y2="970.1614" gradientTransform="matrix(9.3121 0 0 -2.5493 559.3308 3013.2842)">
		<stop  offset="0" style="stop-color:#FF4800"/>
		<stop  offset="1" style="stop-color:#FF791F"/>
	</linearGradient>
	<path id="Path_85_2_" class="st1" d="M656.2,536.4l-32.4-2.1c-3.2-0.2-5.9,2.2-6.1,5.4c0,0.1,0,0.2,0,0.4l0,0
		c0,3.2,2.6,5.7,5.7,5.7c0.1,0,0.2,0,0.4,0l32.4-2.1c1.9-0.1,3.4-1.7,3.4-3.6l0,0C659.6,538.1,658.2,536.5,656.2,536.4z"/>
	
		<linearGradient id="Rectangle_844_1_" gradientUnits="userSpaceOnUse" x1="-40.534" y1="1057.1661" x2="-40.6965" y2="1054.4967" gradientTransform="matrix(1.9216 -1.9216 -6.5836 -6.5836 7688.5029 7364.2754)">
		<stop  offset="0" style="stop-color:#5D41E5"/>
		<stop  offset="1" style="stop-color:#9B80FF"/>
	</linearGradient>
	<path id="Rectangle_844_2_" class="st2" d="M644.2,476.1L644.2,476.1c2.4-2.4,6.3-2.4,8.6,0l21,21c2.4,2.4,2.4,6.3,0,8.6l0,0l0,0
		c-2.4,2.4-6.3,2.4-8.6,0l0,0l-21-21C641.8,482.4,641.8,478.5,644.2,476.1z"/>
	
		<linearGradient id="Path_86_1_" gradientUnits="userSpaceOnUse" x1="11.0332" y1="1035.9552" x2="14.4262" y2="1039.2897" gradientTransform="matrix(7.4074 0 0 -7.4065 566.7114 8272.3818)">
		<stop  offset="0" style="stop-color:#5539E2"/>
		<stop  offset="0.8116" style="stop-color:#9B80FF"/>
	</linearGradient>
	<path id="Path_86_2_" class="st3" d="M665.3,574.2l-21.2,21.2c-2.3,2.3-2.3,6.1,0,8.4c0,0,0,0,0,0l0.2,0.2c2.3,2.3,6.1,2.3,8.4,0
		l21.2-21.2c2.3-2.4,2.3-6.1,0-8.5c0,0,0,0,0,0l-0.1-0.1C671.5,571.9,667.7,571.9,665.3,574.2C665.3,574.2,665.3,574.2,665.3,574.2z
		"/>
	
		<linearGradient id="Path_87_1_" gradientUnits="userSpaceOnUse" x1="24.6014" y1="1049.4929" x2="20.7044" y2="1045.6005" gradientTransform="matrix(7.4059 0 0 -7.4063 588.5489 8250.3809)">
		<stop  offset="0.1047" style="stop-color:#5D41E5"/>
		<stop  offset="0.8276" style="stop-color:#9B80FF"/>
	</linearGradient>
	<path id="Path_87_2_" class="st4" d="M751,505.8l21.2-21.2c2.3-2.3,2.3-6.1,0-8.4L772,476c-2.3-2.3-6.1-2.3-8.4,0c0,0,0,0,0,0
		l-21.2,21.2c-2.3,2.4-2.3,6.1,0,8.5c0,0,0,0,0,0l0.1,0.1C744.8,508.1,748.6,508.2,751,505.8C751,505.8,751,505.8,751,505.8z"/>
	
		<linearGradient id="Path_88_1_" gradientUnits="userSpaceOnUse" x1="48.3512" y1="1054.0496" x2="48.3512" y2="1058.1716" gradientTransform="matrix(2.5493 0 0 -9.312 584.9161 10304.9678)">
		<stop  offset="0" style="stop-color:#FF791F"/>
		<stop  offset="1" style="stop-color:#FF4800"/>
	</linearGradient>
	<path id="Path_88_2_" class="st5" d="M711.8,488.1l2.1-32.4c0.2-3.2-2.2-5.9-5.4-6.1c-0.1,0-0.2,0-0.4,0l0,0
		c-3.2,0-5.7,2.6-5.7,5.7c0,0.1,0,0.2,0,0.4l2.1,32.4c0.1,1.9,1.7,3.4,3.6,3.4l0,0C710.1,491.5,711.7,490,711.8,488.1z"/>
	
		<linearGradient id="Path_89_1_" gradientUnits="userSpaceOnUse" x1="18.2645" y1="970.1601" x2="21.6593" y2="970.1601" gradientTransform="matrix(9.3121 0 0 -2.5493 590.2139 3013.2175)">
		<stop  offset="0" style="stop-color:#FF791F"/>
		<stop  offset="1" style="stop-color:#FF4800"/>
	</linearGradient>
	<path id="Path_89_2_" class="st6" d="M760.1,543.7l32.4,2.1c3.2,0.2,5.9-2.2,6.1-5.4c0-0.1,0-0.2,0-0.4l0,0c0-3.2-2.6-5.7-5.7-5.7
		c-0.1,0-0.2,0-0.4,0l-32.4,2.1c-1.9,0.1-3.4,1.7-3.4,3.6l0,0C756.7,542,758.2,543.5,760.1,543.7z"/>
	
		<linearGradient id="Path_90_1_" gradientUnits="userSpaceOnUse" x1="48.3514" y1="1046.3485" x2="48.3514" y2="1042.2805" gradientTransform="matrix(2.5493 0 0 -9.3121 584.9169 10335.8828)">
		<stop  offset="0" style="stop-color:#FF791F"/>
		<stop  offset="1" style="stop-color:#FF4800"/>
	</linearGradient>
	<path id="Path_90_2_" class="st7" d="M704.5,592l-2.1,32.4c-0.2,3.2,2.2,5.9,5.4,6.1c0.1,0,0.2,0,0.4,0l0,0c3.2,0,5.7-2.6,5.7-5.7
		c0-0.1,0-0.2,0-0.4l-2.1-32.4c-0.1-1.9-1.7-3.4-3.6-3.4l0,0C706.3,588.6,704.7,590,704.5,592z"/>
	
		<linearGradient id="Path_91_1_" gradientUnits="userSpaceOnUse" x1="21.3411" y1="1038.8929" x2="24.4281" y2="1035.6169" gradientTransform="matrix(7.4059 0 0 -7.4059 588.5479 8271.7217)">
		<stop  offset="6.294779e-02" style="stop-color:#9B80FF"/>
		<stop  offset="1" style="stop-color:#6145E7"/>
	</linearGradient>
	<path id="Path_91_2_" class="st8" d="M742.4,582.9l21.2,21.2c2.3,2.3,6.1,2.3,8.4,0l0.2-0.2c2.3-2.3,2.3-6.1,0-8.4L751,574.2
		c-2.4-2.3-6.1-2.3-8.5,0c0,0,0,0,0,0l-0.1,0.1C740.1,576.7,740,580.5,742.4,582.9C742.4,582.9,742.4,582.9,742.4,582.9z"/>
	
		<linearGradient id="Rectangle_845_1_" gradientUnits="userSpaceOnUse" x1="-79.0704" y1="1055.7811" x2="-79.27" y2="1052.0604" gradientTransform="matrix(0.9921 -2.5305 -9.944 -3.8986 11349.832 4482.0361)">
		<stop  offset="0" style="stop-color:#1DDFFF"/>
		<stop  offset="1" style="stop-color:#0D52FF"/>
	</linearGradient>
	<path id="Rectangle_845_2_" class="st9" d="M767.1,564.2L767.1,564.2c1.2-3.1,4.8-4.7,7.9-3.5l33.4,13.1c3.1,1.2,4.7,4.8,3.5,7.9
		l0,0c-1.2,3.1-4.8,4.7-7.9,3.5l-33.4-13.1C767.5,570.9,765.9,567.3,767.1,564.2z"/>
	
		<linearGradient id="Rectangle_846_1_" gradientUnits="userSpaceOnUse" x1="1.0788" y1="1059.8525" x2="1.0788" y2="1056.1533" gradientTransform="matrix(2.4914 -1.0866 -4.2696 -9.7894 5190.5166 10820.0654)">
		<stop  offset="0" style="stop-color:#20CE66"/>
		<stop  offset="1" style="stop-color:#DAE120"/>
	</linearGradient>
	<path id="Rectangle_846_2_" class="st10" d="M665.6,437.9L665.6,437.9c3.1-1.4,6.7,0.1,8.1,3.2l14.3,32.8c1.4,3.1-0.1,6.7-3.2,8.1
		l0,0c-3.1,1.3-6.7-0.1-8-3.2L662.5,446C661.1,442.9,662.5,439.3,665.6,437.9z"/>
	
		<linearGradient id="Path_92_1_" gradientUnits="userSpaceOnUse" x1="17.755" y1="1035.9152" x2="21.931" y2="1038.7681" gradientTransform="matrix(10.0258 0 0 -5.9138 591.501 6640.7959)">
		<stop  offset="0" style="stop-color:#DAE120"/>
		<stop  offset="0.128" style="stop-color:#C9DF26"/>
		<stop  offset="0.378" style="stop-color:#9FDA36"/>
		<stop  offset="0.723" style="stop-color:#5BD44F"/>
		<stop  offset="1" style="stop-color:#20CE66"/>
	</linearGradient>
	<path id="Path_92_2_" class="st11" d="M810.3,497.5l0-0.1c-1.3-3.1-4.9-4.5-8-3.2c0,0,0,0,0,0l-33,14.4c-3.1,1.3-4.5,4.9-3.1,8
		c0,0,0,0,0,0l0,0.1c1.3,3.1,4.9,4.5,7.9,3.2c0,0,0,0,0,0l33-14.4C810.3,504.2,811.7,500.6,810.3,497.5
		C810.3,497.5,810.3,497.5,810.3,497.5z"/>
	
		<linearGradient id="Rectangle_847_1_" gradientUnits="userSpaceOnUse" x1="-14.4151" y1="1001.5093" x2="-10.9005" y2="1001.4243" gradientTransform="matrix(3.8986 -9.944 -2.5305 -0.9921 3324.1465 1327.5167)">
		<stop  offset="0" style="stop-color:#1DDFFF"/>
		<stop  offset="1" style="stop-color:#0E60FF"/>
	</linearGradient>
	<path id="Rectangle_847_2_" class="st12" d="M728.9,473.1l13.1-33.4c1.2-3.1,4.8-4.7,7.9-3.5l0,0l0,0c3.1,1.2,4.7,4.8,3.5,7.9
		c0,0,0,0,0,0l-13.1,33.4c-1.2,3.1-4.8,4.7-7.9,3.5l0,0C729.2,479.8,727.6,476.3,728.9,473.1z"/>
	
		<linearGradient id="Rectangle_848_1_" gradientUnits="userSpaceOnUse" x1="0.4054" y1="1047.2815" x2="0.3945" y2="1043.5684" gradientTransform="matrix(2.4913 -1.0867 -4.2701 -9.7892 5206.5996 10855.4238)">
		<stop  offset="0" style="stop-color:#DAE120"/>
		<stop  offset="1" style="stop-color:#20CE66"/>
	</linearGradient>
	<path id="Rectangle_848_2_" class="st13" d="M733.5,598.1L733.5,598.1c3.1-1.4,6.7,0.1,8.1,3.2l14.3,32.8c1.4,3.1-0.1,6.7-3.2,8.1
		l0,0c-3.1,1.3-6.7-0.1-8-3.2l-14.3-32.8C729,603.1,730.4,599.5,733.5,598.1z"/>
	
		<linearGradient id="Rectangle_849_1_" gradientUnits="userSpaceOnUse" x1="-23.3246" y1="1001.6778" x2="-27.0782" y2="1001.9658" gradientTransform="matrix(3.8986 -9.944 -2.5305 -0.9921 3309.9534 1363.6697)">
		<stop  offset="0" style="stop-color:#1DDFFF"/>
		<stop  offset="1" style="stop-color:#0E60FF"/>
	</linearGradient>
	<path id="Rectangle_849_2_" class="st14" d="M664,635.8l13.1-33.4c1.2-3.1,4.8-4.7,7.9-3.5l0,0l0,0c3.1,1.2,4.7,4.8,3.5,7.9
		c0,0,0,0,0,0l-13.1,33.4c-1.2,3.1-4.8,4.7-7.9,3.5l0,0C664.3,642.5,662.8,639,664,635.8z"/>
	
		<linearGradient id="Rectangle_850_1_" gradientUnits="userSpaceOnUse" x1="-79.2219" y1="1064.7964" x2="-78.4148" y2="1068.6721" gradientTransform="matrix(0.9921 -2.5305 -9.944 -3.8986 11313.6797 4467.8433)">
		<stop  offset="0" style="stop-color:#1DDFFF"/>
		<stop  offset="1" style="stop-color:#0E60FF"/>
	</linearGradient>
	<path id="Rectangle_850_2_" class="st15" d="M604.5,499.3L604.5,499.3c1.2-3.1,4.8-4.7,7.9-3.5l33.4,13.1c3.1,1.2,4.7,4.8,3.5,7.9
		l0,0c-1.2,3.1-4.8,4.7-7.9,3.5l-33.4-13.1C604.8,506,603.2,502.5,604.5,499.3z"/>
	
		<linearGradient id="Rectangle_851_1_" gradientUnits="userSpaceOnUse" x1="-7.1243" y1="968.7335" x2="-3.3693" y2="968.76" gradientTransform="matrix(9.7893 -4.2699 -1.0867 -2.4913 1730.4037 2964.7864)">
		<stop  offset="1.900000e-02" style="stop-color:#20CE66"/>
		<stop  offset="1" style="stop-color:#DAE120"/>
	</linearGradient>
	<path id="Rectangle_851_2_" class="st16" d="M609.2,574.5l32.8-14.3c3.1-1.4,6.7,0.1,8.1,3.2l0,0l0,0c1.4,3.1-0.1,6.7-3.2,8.1
		c0,0,0,0,0,0l-32.8,14.3c-3.1,1.3-6.7-0.1-8-3.2l0,0C604.7,579.5,606.1,575.9,609.2,574.5C609.2,574.5,609.2,574.5,609.2,574.5z"/>
	<circle id="Ellipse_26_2_" class="st17" cx="708.2" cy="437.2" r="4.1"/>
	<circle id="Ellipse_27_2_" class="st17" cx="708.2" cy="642.8" r="4.1"/>
	<circle id="Ellipse_28_2_" class="st17" cx="605.4" cy="540" r="4.1"/>
	<circle id="Ellipse_29_2_" class="st17" cx="810.9" cy="540" r="4.1"/>
</g>
</svg>
